<?xml version="1.0" encoding="UTF-8"?>
<svg id="Layer_1" data-name="Layer 1" xmlns="http://www.w3.org/2000/svg" viewBox="0 0 218.32 49.84">
  <defs>
    <style>
      .cls-1 {
        fill: #5a5a5a;
      }

      .cls-1, .cls-2 {
        stroke-width: 0px;
      }

      .cls-2 {
        fill: #eab464;
      }
    </style>
  </defs>
  <g>
    <path class="cls-1" d="m53.49,38.22V4.91h7v14.05l-.45,7.14.13,7.18v4.94h-6.69Zm14.27.36c-2.12,0-3.95-.45-5.48-1.35-1.53-.9-2.69-2.27-3.5-4.11-.81-1.84-1.21-4.17-1.21-6.98s.43-5.18,1.28-7c.85-1.82,2.04-3.19,3.57-4.08,1.53-.9,3.31-1.35,5.34-1.35,2.27,0,4.32.51,6.13,1.53,1.81,1.02,3.25,2.45,4.31,4.31,1.06,1.86,1.59,4.06,1.59,6.6s-.53,4.7-1.59,6.55c-1.06,1.86-2.5,3.3-4.31,4.33s-3.85,1.55-6.13,1.55Zm-1.21-5.75c1.17,0,2.21-.27,3.12-.81.91-.54,1.65-1.31,2.2-2.31.55-1,.83-2.19.83-3.57s-.28-2.6-.83-3.59c-.55-.99-1.29-1.75-2.2-2.29-.91-.54-1.95-.81-3.12-.81s-2.21.27-3.14.81c-.93.54-1.66,1.3-2.2,2.29-.54.99-.81,2.18-.81,3.59s.27,2.57.81,3.57c.54,1,1.27,1.77,2.2,2.31.93.54,1.98.81,3.14.81Z"/>
    <path class="cls-1" d="m96.45,38.57c-2.75,0-5.17-.54-7.25-1.62s-3.69-2.55-4.83-4.42c-1.14-1.87-1.71-4-1.71-6.4s.56-4.57,1.68-6.44c1.12-1.87,2.66-3.34,4.6-4.4,1.95-1.06,4.14-1.59,6.6-1.59s4.5.5,6.4,1.5c1.9,1,3.4,2.44,4.51,4.31,1.11,1.87,1.66,4.11,1.66,6.71,0,.27-.02.58-.04.92-.03.34-.06.67-.09.97h-19.62v-4.08h15.94l-2.69,1.21c0-1.26-.25-2.35-.76-3.28-.51-.93-1.21-1.65-2.11-2.18-.9-.52-1.95-.79-3.14-.79s-2.25.26-3.16.79c-.91.52-1.62,1.26-2.13,2.2-.51.94-.76,2.06-.76,3.34v1.08c0,1.32.29,2.48.88,3.48.58,1,1.41,1.77,2.47,2.29s2.31.79,3.75.79c1.29,0,2.42-.19,3.39-.58.97-.39,1.86-.97,2.67-1.75l3.73,4.04c-1.11,1.26-2.5,2.22-4.17,2.89-1.68.67-3.61,1.01-5.79,1.01Z"/>
    <path class="cls-1" d="m124.77,38.57c-2.75,0-5.17-.54-7.25-1.62s-3.69-2.55-4.83-4.42c-1.14-1.87-1.71-4-1.71-6.4s.56-4.57,1.68-6.44c1.12-1.87,2.66-3.34,4.6-4.4,1.95-1.06,4.14-1.59,6.6-1.59s4.5.5,6.4,1.5c1.9,1,3.4,2.44,4.51,4.31,1.11,1.87,1.66,4.11,1.66,6.71,0,.27-.02.58-.04.92-.03.34-.06.67-.09.97h-19.62v-4.08h15.94l-2.69,1.21c0-1.26-.25-2.35-.76-3.28-.51-.93-1.21-1.65-2.11-2.18-.9-.52-1.95-.79-3.14-.79s-2.25.26-3.16.79c-.91.52-1.62,1.26-2.13,2.2-.51.94-.76,2.06-.76,3.34v1.08c0,1.32.29,2.48.88,3.48.58,1,1.41,1.77,2.47,2.29s2.31.79,3.75.79c1.29,0,2.42-.19,3.39-.58.97-.39,1.86-.97,2.67-1.75l3.73,4.04c-1.11,1.26-2.5,2.22-4.17,2.89-1.68.67-3.61,1.01-5.79,1.01Z"/>
    <path class="cls-1" d="m142.64,38.22V4.91h2.25v33.31h-2.25Z"/>
    <path class="cls-1" d="m155.48,9.08c-.51,0-.94-.18-1.3-.54-.36-.36-.54-.78-.54-1.26,0-.51.18-.94.54-1.3s.79-.54,1.3-.54c.54,0,.98.17,1.32.52.34.34.52.77.52,1.28s-.17.94-.52,1.3c-.34.36-.79.54-1.32.54Zm-1.12,29.13V14.78h2.25v23.43h-2.25Z"/>
    <path class="cls-1" d="m177.51,14.6c1.92,0,3.58.37,5,1.1,1.42.73,2.53,1.84,3.32,3.32.79,1.48,1.19,3.32,1.19,5.5v13.69h-2.25v-13.51c0-2.63-.67-4.64-2-6.01-1.33-1.38-3.2-2.07-5.59-2.07-1.83,0-3.41.38-4.76,1.12-1.35.75-2.37,1.8-3.08,3.14s-1.05,2.96-1.05,4.85v12.48h-2.25V14.78h2.16v6.51l-.31-.72c.72-1.85,1.9-3.31,3.55-4.38s3.67-1.59,6.06-1.59Z"/>
    <path class="cls-1" d="m205.79,38.4c-2.36,0-4.45-.51-6.26-1.53-1.81-1.02-3.23-2.42-4.26-4.22-1.03-1.79-1.55-3.84-1.55-6.15s.49-4.39,1.46-6.17c.97-1.78,2.31-3.18,4.02-4.2s3.62-1.53,5.75-1.53,4.03.49,5.72,1.48c1.69.99,3.02,2.37,4,4.15.97,1.78,1.46,3.84,1.46,6.17,0,.09,0,.19-.02.29-.01.1-.02.22-.02.34h-20.69v-1.75h19.48l-.9.85c.03-1.83-.35-3.46-1.14-4.92-.79-1.45-1.86-2.59-3.21-3.41-1.35-.82-2.9-1.23-4.67-1.23s-3.29.41-4.65,1.23c-1.36.82-2.43,1.96-3.21,3.41-.78,1.45-1.17,3.1-1.17,4.96v.4c0,1.92.43,3.61,1.28,5.09.85,1.48,2.03,2.63,3.52,3.46,1.5.82,3.2,1.23,5.12,1.23,1.5,0,2.9-.27,4.2-.81s2.4-1.36,3.3-2.47l1.3,1.48c-1.02,1.26-2.3,2.21-3.84,2.85s-3.21.96-5,.96Z"/>
  </g>
  <g>
    <g>
      <path class="cls-2" d="m37,8.19L24.47.96c-2.21-1.28-4.94-1.28-7.15,0l-12.53,7.23c-2.21,1.28-3.57,3.64-3.57,6.19v6.96l19.67-11.36,19.67,11.36v-6.96c0-2.55-1.36-4.91-3.57-6.19Z"/>
      <path class="cls-2" d="m31.25,38.6l-5.99,3.46c-2.7,1.56-6.03,1.56-8.73,0l-5.99-3.46,8.38-4.86c1.22-.71,2.72-.71,3.94,0l8.38,4.86Z"/>
    </g>
    <path class="cls-1" d="m39.51,26.57l-15.2-8.81c-2.11-1.22-4.7-1.22-6.81,0L2.29,26.57c-1.42.82-2.29,2.34-2.29,3.97h0c0,3.54,3.83,5.75,6.9,3.97l14-8.12,14,8.12c3.06,1.78,6.9-.43,6.9-3.97h0c0-1.64-.87-3.15-2.29-3.97Z"/>
  </g>
</svg>